<?xml version="1.0" encoding="UTF-8"?>
<svg width="15px" height="18px" viewBox="0 0 15 18" version="1.1" xmlns="http://www.w3.org/2000/svg" xmlns:xlink="http://www.w3.org/1999/xlink">
    <title>icon / moon</title>
    <g id="Symbols" stroke="none" stroke-width="1" fill="none" fill-rule="evenodd">
        <g id="object/moon" transform="translate(-5.000000, -3.000000)" fill="#000000" fill-rule="nonzero">
            <g id="icon-/-moon" transform="translate(5.000000, 3.000000)">
                <path d="M13.2494,15.7793 L13.7813,16.6261 C14.1196,16.4136 14.299,16.0202 14.2375,15.6255 C14.1761,15.2308 13.8856,14.9105 13.4988,14.8109 L13.2494,15.7793 Z M13.2494,2.22068 L13.4988,3.18909 C13.8856,3.08949 14.1761,2.76921 14.2375,2.37449 C14.299,1.97978 14.1196,1.58636 13.7813,1.37388 L13.2494,2.22068 Z M9,18 C10.755,18 12.3954,17.4967 13.7813,16.6261 L12.7175,14.9325 C11.641,15.6088 10.3677,16 9,16 L9,18 Z M0,9 C0,13.9706 4.02944,18 9,18 L9,16 C5.134,16 2,12.866 2,9 L0,9 Z M9,0 C4.02944,0 0,4.02944 0,9 L2,9 C2,5.13401 5.134,2 9,2 L9,0 Z M13.7813,1.37388 C12.3954,0.50331 10.755,0 9,0 L9,2 C10.3677,2 11.641,2.39124 12.7175,3.06748 L13.7813,1.37388 Z M13.0001,1.25226 C9.5502,2.14052 7,5.27118 7,9 L9,9 C9,6.20579 10.911,3.85538 13.4988,3.18909 L13.0001,1.25226 Z M7,9 C7,12.7288 9.5502,15.8595 13.0001,16.7477 L13.4988,14.8109 C10.911,14.1446 9,11.7942 9,9 L7,9 Z" id="Shape"></path>
            </g>
        </g>
    </g>
</svg>