<?xml version="1.0" encoding="UTF-8"?>
<svg width="22px" height="22px" viewBox="0 0 22 22" version="1.1" xmlns="http://www.w3.org/2000/svg" xmlns:xlink="http://www.w3.org/1999/xlink">
    <title>icon / sun</title>
    <g id="Symbols" stroke="none" stroke-width="1" fill="none" fill-rule="evenodd">
        <g id="object/sun" transform="translate(-1.000000, -1.000000)" fill="#000000">
            <g id="icon-/-sun" transform="translate(1.000000, 1.000000)">
                <path d="M11,0 C11.5523,0 12,0.44772 12,1 L12,3 C12,3.55228 11.5523,4 11,4 C10.4477,4 10,3.55228 10,3 L10,1 C10,0.44772 10.4477,0 11,0 Z M5,11 C5,7.68629 7.68629,5 11,5 C14.3137,5 17,7.68629 17,11 C17,14.3137 14.3137,17 11,17 C7.68629,17 5,14.3137 5,11 Z M11,7 C8.79086,7 7,8.79086 7,11 C7,13.2091 8.79086,15 11,15 C13.2091,15 15,13.2091 15,11 C15,8.79086 13.2091,7 11,7 Z M12,19 C12,18.4477 11.5523,18 11,18 C10.4477,18 10,18.4477 10,19 L10,21 C10,21.5523 10.4477,22 11,22 C11.5523,22 12,21.5523 12,21 L12,19 Z M22,11 C22,11.5523 21.5523,12 21,12 L19,12 C18.4477,12 18,11.5523 18,11 C18,10.4477 18.4477,10 19,10 L21,10 C21.5523,10 22,10.4477 22,11 Z M3,12 C3.55228,12 4,11.5523 4,11 C4,10.4477 3.55228,10 3,10 L1,10 C0.44772,10 0,10.4477 0,11 C0,11.5523 0.44772,12 1,12 L3,12 Z M18.7782,3.22189 C19.1687,3.61241 19.1687,4.24558 18.7782,4.6361 L17.364,6.05031 C16.9735,6.44084 16.3403,6.44084 15.9498,6.05031 C15.5592,5.65979 15.5592,5.02662 15.9498,4.6361 L17.364,3.22189 C17.7545,2.83136 18.3877,2.83136 18.7782,3.22189 Z M6.05028,17.3639 C6.44081,16.9734 6.44081,16.3402 6.05028,15.9497 C5.65976,15.5591 5.0266,15.5591 4.63607,15.9497 L3.22186,17.3639 C2.83133,17.7544 2.83133,18.3876 3.22186,18.7781 C3.61238,19.1686 4.24555,19.1686 4.63607,18.7781 L6.05028,17.3639 Z M3.22189,3.22181 C3.61241,2.83129 4.24558,2.83129 4.6361,3.22181 L6.05031,4.63602 C6.44084,5.02655 6.44084,5.65971 6.05031,6.05024 C5.65979,6.44076 5.02662,6.44076 4.6361,6.05024 L3.22189,4.63602 C2.83136,4.2455 2.83136,3.61233 3.22189,3.22181 Z M17.364,15.9498 C16.9735,15.5593 16.3403,15.5593 15.9498,15.9498 C15.5593,16.3404 15.5593,16.9735 15.9498,17.3641 L17.364,18.7783 C17.7545,19.1688 18.3877,19.1688 18.7782,18.7783 C19.1687,18.3877 19.1687,17.7546 18.7782,17.3641 L17.364,15.9498 Z" id="Shape"></path>
            </g>
        </g>
    </g>
</svg>